<svg xmlns="http://www.w3.org/2000/svg" xmlns:xlink="http://www.w3.org/1999/xlink" width="500" zoomAndPan="magnify" viewBox="0 0 375 374.999991" height="500" preserveAspectRatio="xMidYMid meet" version="1.0"><defs><filter x="0%" y="0%" width="100%" height="100%" id="133b76ef03"><feColorMatrix values="0 0 0 0 1 0 0 0 0 1 0 0 0 0 1 0 0 0 1 0" color-interpolation-filters="sRGB"/></filter><g/><clipPath id="daf4f1fcee"><path d="M 52 20.191406 L 323 20.191406 L 323 190 L 52 190 Z M 52 20.191406 " clip-rule="nonzero"/></clipPath><clipPath id="591804fc16"><path d="M 46.03125 182 L 93 182 L 93 257 L 46.03125 257 Z M 46.03125 182 " clip-rule="nonzero"/></clipPath><clipPath id="8520f4459f"><path d="M 67 172 L 115 172 L 115 267.691406 L 67 267.691406 Z M 67 172 " clip-rule="nonzero"/></clipPath><clipPath id="1094197904"><path d="M 282 182 L 328.78125 182 L 328.78125 257 L 282 257 Z M 282 182 " clip-rule="nonzero"/></clipPath><clipPath id="bf3ba06b80"><path d="M 260 172 L 308 172 L 308 267.691406 L 260 267.691406 Z M 260 172 " clip-rule="nonzero"/></clipPath><mask id="3160f1ea99"><g filter="url(#133b76ef03)"><rect x="-37.5" width="450" fill="#000000" y="-37.499999" height="449.999989" fill-opacity="0.94"/></g></mask><clipPath id="4d7857c4e8"><rect x="0" width="371" y="0" height="103"/></clipPath></defs><g clip-path="url(#daf4f1fcee)"><path fill="#021526" d="M 187.488281 20.285156 C 113.007812 20.285156 52.632812 80.660156 52.632812 155.140625 C 52.683594 166.890625 52.515625 189.925781 52.515625 189.925781 L 66.316406 189.925781 C 66.316406 189.925781 66.007812 166.925781 65.972656 155.140625 C 65.972656 88.03125 120.378906 33.628906 187.484375 33.628906 C 254.59375 33.628906 308.996094 88.03125 308.996094 155.140625 C 308.980469 166.921875 308.703125 189.925781 308.703125 189.925781 L 322.558594 189.925781 C 322.558594 189.925781 322.320312 166.886719 322.339844 155.140625 C 322.339844 80.660156 261.964844 20.285156 187.484375 20.285156 Z M 187.488281 20.285156 " fill-opacity="1" fill-rule="evenodd"/></g><g clip-path="url(#591804fc16)"><path fill="#6eacda" d="M 69.34375 182.667969 C 70.109375 182.667969 70.871094 182.703125 71.628906 182.78125 C 72.390625 182.855469 73.144531 182.964844 73.890625 183.113281 C 74.640625 183.265625 75.378906 183.449219 76.109375 183.671875 C 76.839844 183.894531 77.558594 184.148438 78.265625 184.441406 C 78.96875 184.734375 79.660156 185.058594 80.332031 185.417969 C 81.007812 185.78125 81.660156 186.171875 82.296875 186.597656 C 82.929688 187.019531 83.542969 187.472656 84.132812 187.957031 C 84.722656 188.441406 85.289062 188.957031 85.828125 189.496094 C 86.367188 190.035156 86.878906 190.601562 87.363281 191.191406 C 87.847656 191.78125 88.300781 192.394531 88.726562 193.027344 C 89.152344 193.664062 89.542969 194.316406 89.902344 194.988281 C 90.261719 195.664062 90.589844 196.351562 90.882812 197.058594 C 91.171875 197.761719 91.429688 198.480469 91.652344 199.210938 C 91.875 199.941406 92.058594 200.683594 92.207031 201.429688 C 92.355469 202.179688 92.46875 202.933594 92.542969 203.695312 C 92.617188 204.453125 92.65625 205.214844 92.65625 205.980469 L 92.65625 233.527344 C 92.65625 234.292969 92.617188 235.054688 92.542969 235.8125 C 92.46875 236.574219 92.355469 237.328125 92.207031 238.074219 C 92.058594 238.824219 91.875 239.5625 91.652344 240.292969 C 91.429688 241.027344 91.171875 241.742188 90.882812 242.449219 C 90.589844 243.152344 90.261719 243.84375 89.902344 244.515625 C 89.542969 245.191406 89.152344 245.84375 88.726562 246.480469 C 88.300781 247.113281 87.847656 247.726562 87.363281 248.316406 C 86.878906 248.90625 86.367188 249.472656 85.828125 250.011719 C 85.289062 250.550781 84.722656 251.0625 84.132812 251.546875 C 83.542969 252.03125 82.929688 252.488281 82.296875 252.910156 C 81.660156 253.335938 81.007812 253.726562 80.332031 254.085938 C 79.660156 254.445312 78.96875 254.773438 78.265625 255.066406 C 77.558594 255.355469 76.839844 255.613281 76.109375 255.835938 C 75.378906 256.058594 74.640625 256.242188 73.890625 256.390625 C 73.144531 256.539062 72.390625 256.652344 71.628906 256.726562 C 70.871094 256.800781 70.109375 256.839844 69.34375 256.839844 C 68.582031 256.839844 67.820312 256.800781 67.058594 256.726562 C 66.300781 256.652344 65.546875 256.539062 64.796875 256.390625 C 64.046875 256.242188 63.308594 256.058594 62.578125 255.835938 C 61.847656 255.613281 61.128906 255.355469 60.421875 255.066406 C 59.71875 254.773438 59.027344 254.445312 58.355469 254.085938 C 57.683594 253.726562 57.027344 253.335938 56.394531 252.910156 C 55.757812 252.488281 55.144531 252.03125 54.554688 251.546875 C 53.964844 251.0625 53.402344 250.550781 52.859375 250.011719 C 52.320312 249.472656 51.808594 248.90625 51.324219 248.316406 C 50.839844 247.726562 50.386719 247.113281 49.960938 246.480469 C 49.539062 245.84375 49.144531 245.191406 48.785156 244.515625 C 48.425781 243.84375 48.101562 243.152344 47.808594 242.449219 C 47.515625 241.742188 47.257812 241.027344 47.035156 240.292969 C 46.816406 239.5625 46.628906 238.824219 46.480469 238.074219 C 46.332031 237.328125 46.21875 236.574219 46.144531 235.8125 C 46.070312 235.054688 46.03125 234.292969 46.03125 233.527344 L 46.03125 205.980469 C 46.03125 205.214844 46.070312 204.453125 46.144531 203.695312 C 46.21875 202.933594 46.332031 202.179688 46.480469 201.429688 C 46.628906 200.683594 46.816406 199.941406 47.035156 199.210938 C 47.257812 198.480469 47.515625 197.761719 47.808594 197.058594 C 48.101562 196.351562 48.425781 195.664062 48.785156 194.988281 C 49.144531 194.316406 49.539062 193.664062 49.960938 193.027344 C 50.386719 192.394531 50.839844 191.78125 51.324219 191.191406 C 51.808594 190.601562 52.320312 190.035156 52.859375 189.496094 C 53.402344 188.957031 53.964844 188.441406 54.554688 187.957031 C 55.144531 187.472656 55.757812 187.019531 56.394531 186.597656 C 57.027344 186.171875 57.683594 185.78125 58.355469 185.417969 C 59.027344 185.058594 59.71875 184.734375 60.421875 184.441406 C 61.128906 184.148438 61.847656 183.894531 62.578125 183.671875 C 63.308594 183.449219 64.046875 183.265625 64.796875 183.113281 C 65.546875 182.964844 66.300781 182.855469 67.058594 182.78125 C 67.820312 182.703125 68.582031 182.667969 69.34375 182.667969 Z M 69.34375 182.667969 " fill-opacity="1" fill-rule="evenodd"/></g><g clip-path="url(#8520f4459f)"><path fill="#03346e" d="M 76.761719 172.074219 L 105.371094 172.074219 C 105.996094 172.074219 106.617188 172.136719 107.230469 172.257812 C 107.84375 172.378906 108.441406 172.5625 109.019531 172.800781 C 109.597656 173.039062 110.148438 173.335938 110.667969 173.683594 C 111.1875 174.03125 111.671875 174.425781 112.113281 174.867188 C 112.554688 175.3125 112.953125 175.792969 113.300781 176.3125 C 113.648438 176.835938 113.941406 177.382812 114.179688 177.960938 C 114.421875 178.539062 114.601562 179.136719 114.722656 179.75 C 114.84375 180.367188 114.90625 180.984375 114.90625 181.613281 L 114.90625 257.902344 C 114.90625 258.527344 114.84375 259.148438 114.722656 259.761719 C 114.601562 260.375 114.421875 260.972656 114.179688 261.550781 C 113.941406 262.128906 113.648438 262.679688 113.300781 263.199219 C 112.953125 263.722656 112.554688 264.203125 112.113281 264.644531 C 111.671875 265.089844 111.1875 265.484375 110.667969 265.832031 C 110.148438 266.179688 109.597656 266.472656 109.019531 266.710938 C 108.441406 266.953125 107.84375 267.132812 107.230469 267.253906 C 106.617188 267.378906 105.996094 267.4375 105.371094 267.4375 L 76.761719 267.4375 C 76.132812 267.4375 75.515625 267.378906 74.898438 267.253906 C 74.285156 267.132812 73.6875 266.953125 73.109375 266.710938 C 72.53125 266.472656 71.984375 266.179688 71.460938 265.832031 C 70.941406 265.484375 70.460938 265.089844 70.015625 264.644531 C 69.574219 264.203125 69.179688 263.722656 68.832031 263.199219 C 68.484375 262.679688 68.191406 262.128906 67.949219 261.550781 C 67.710938 260.972656 67.53125 260.375 67.40625 259.761719 C 67.285156 259.148438 67.222656 258.527344 67.222656 257.902344 L 67.222656 181.613281 C 67.222656 180.984375 67.285156 180.367188 67.40625 179.75 C 67.53125 179.136719 67.710938 178.539062 67.949219 177.960938 C 68.191406 177.382812 68.484375 176.835938 68.832031 176.3125 C 69.179688 175.792969 69.574219 175.3125 70.015625 174.867188 C 70.460938 174.425781 70.941406 174.03125 71.460938 173.683594 C 71.984375 173.335938 72.53125 173.039062 73.109375 172.800781 C 73.6875 172.5625 74.285156 172.378906 74.898438 172.257812 C 75.515625 172.136719 76.132812 172.074219 76.761719 172.074219 Z M 76.761719 172.074219 " fill-opacity="1" fill-rule="evenodd"/></g><g clip-path="url(#1094197904)"><path fill="#6eacda" d="M 305.636719 182.667969 C 304.875 182.667969 304.113281 182.703125 303.351562 182.78125 C 302.59375 182.855469 301.839844 182.964844 301.089844 183.113281 C 300.339844 183.265625 299.601562 183.449219 298.871094 183.671875 C 298.140625 183.894531 297.421875 184.148438 296.714844 184.441406 C 296.011719 184.734375 295.320312 185.058594 294.648438 185.417969 C 293.976562 185.78125 293.320312 186.171875 292.6875 186.597656 C 292.050781 187.019531 291.4375 187.472656 290.847656 187.957031 C 290.257812 188.441406 289.695312 188.957031 289.152344 189.496094 C 288.613281 190.035156 288.101562 190.601562 287.617188 191.191406 C 287.132812 191.78125 286.679688 192.394531 286.253906 193.027344 C 285.832031 193.664062 285.4375 194.316406 285.078125 194.988281 C 284.71875 195.664062 284.394531 196.351562 284.101562 197.058594 C 283.808594 197.761719 283.550781 198.480469 283.332031 199.210938 C 283.109375 199.941406 282.921875 200.683594 282.773438 201.429688 C 282.625 202.179688 282.511719 202.933594 282.4375 203.695312 C 282.363281 204.453125 282.328125 205.214844 282.328125 205.980469 L 282.328125 233.527344 C 282.328125 234.292969 282.363281 235.054688 282.4375 235.8125 C 282.511719 236.574219 282.625 237.328125 282.773438 238.074219 C 282.921875 238.824219 283.109375 239.5625 283.332031 240.292969 C 283.550781 241.027344 283.808594 241.742188 284.101562 242.449219 C 284.394531 243.152344 284.71875 243.84375 285.078125 244.515625 C 285.4375 245.191406 285.832031 245.84375 286.253906 246.480469 C 286.679688 247.113281 287.132812 247.726562 287.617188 248.316406 C 288.101562 248.90625 288.613281 249.472656 289.152344 250.011719 C 289.695312 250.550781 290.257812 251.0625 290.847656 251.546875 C 291.4375 252.03125 292.050781 252.488281 292.6875 252.910156 C 293.320312 253.335938 293.976562 253.726562 294.648438 254.085938 C 295.320312 254.445312 296.011719 254.773438 296.714844 255.066406 C 297.421875 255.355469 298.140625 255.613281 298.871094 255.835938 C 299.601562 256.058594 300.339844 256.242188 301.089844 256.390625 C 301.839844 256.539062 302.59375 256.652344 303.351562 256.726562 C 304.113281 256.800781 304.875 256.839844 305.636719 256.839844 C 306.402344 256.839844 307.164062 256.800781 307.921875 256.726562 C 308.683594 256.652344 309.4375 256.539062 310.183594 256.390625 C 310.933594 256.242188 311.675781 256.058594 312.40625 255.835938 C 313.136719 255.613281 313.851562 255.355469 314.558594 255.066406 C 315.265625 254.773438 315.953125 254.445312 316.625 254.085938 C 317.300781 253.726562 317.953125 253.335938 318.589844 252.910156 C 319.222656 252.488281 319.835938 252.03125 320.425781 251.546875 C 321.015625 251.0625 321.582031 250.550781 322.121094 250.011719 C 322.660156 249.472656 323.171875 248.90625 323.65625 248.316406 C 324.140625 247.726562 324.597656 247.113281 325.019531 246.480469 C 325.445312 245.84375 325.835938 245.191406 326.195312 244.515625 C 326.554688 243.84375 326.882812 243.152344 327.175781 242.449219 C 327.464844 241.742188 327.722656 241.027344 327.945312 240.292969 C 328.167969 239.5625 328.351562 238.824219 328.5 238.074219 C 328.648438 237.328125 328.761719 236.574219 328.835938 235.8125 C 328.910156 235.054688 328.949219 234.292969 328.949219 233.527344 L 328.949219 205.980469 C 328.949219 205.214844 328.910156 204.453125 328.835938 203.695312 C 328.761719 202.933594 328.648438 202.179688 328.5 201.429688 C 328.351562 200.683594 328.167969 199.941406 327.945312 199.210938 C 327.722656 198.480469 327.464844 197.761719 327.175781 197.058594 C 326.882812 196.351562 326.554688 195.664062 326.195312 194.988281 C 325.835938 194.316406 325.445312 193.664062 325.019531 193.027344 C 324.597656 192.394531 324.140625 191.78125 323.65625 191.191406 C 323.171875 190.601562 322.660156 190.035156 322.121094 189.496094 C 321.582031 188.957031 321.015625 188.441406 320.425781 187.957031 C 319.835938 187.472656 319.222656 187.019531 318.589844 186.597656 C 317.953125 186.171875 317.300781 185.78125 316.625 185.417969 C 315.953125 185.058594 315.265625 184.734375 314.558594 184.441406 C 313.851562 184.148438 313.136719 183.894531 312.40625 183.671875 C 311.675781 183.449219 310.933594 183.265625 310.183594 183.113281 C 309.4375 182.964844 308.683594 182.855469 307.921875 182.78125 C 307.164062 182.703125 306.402344 182.667969 305.636719 182.667969 Z M 305.636719 182.667969 " fill-opacity="1" fill-rule="evenodd"/></g><g clip-path="url(#bf3ba06b80)"><path fill="#03346e" d="M 298.222656 172.074219 L 269.613281 172.074219 C 268.984375 172.074219 268.367188 172.136719 267.75 172.257812 C 267.136719 172.378906 266.539062 172.5625 265.960938 172.800781 C 265.382812 173.039062 264.835938 173.335938 264.3125 173.683594 C 263.792969 174.03125 263.3125 174.425781 262.867188 174.867188 C 262.425781 175.3125 262.03125 175.792969 261.683594 176.3125 C 261.335938 176.835938 261.039062 177.382812 260.800781 177.960938 C 260.5625 178.539062 260.378906 179.136719 260.257812 179.75 C 260.136719 180.367188 260.074219 180.984375 260.074219 181.613281 L 260.074219 257.902344 C 260.074219 258.527344 260.136719 259.148438 260.257812 259.761719 C 260.378906 260.375 260.5625 260.972656 260.800781 261.550781 C 261.039062 262.128906 261.335938 262.679688 261.683594 263.199219 C 262.03125 263.722656 262.425781 264.203125 262.867188 264.644531 C 263.3125 265.089844 263.792969 265.484375 264.3125 265.832031 C 264.835938 266.179688 265.382812 266.472656 265.960938 266.710938 C 266.539062 266.953125 267.136719 267.132812 267.75 267.253906 C 268.367188 267.378906 268.984375 267.4375 269.613281 267.4375 L 298.222656 267.4375 C 298.847656 267.4375 299.46875 267.378906 300.082031 267.253906 C 300.695312 267.132812 301.292969 266.953125 301.871094 266.710938 C 302.449219 266.472656 303 266.179688 303.519531 265.832031 C 304.039062 265.484375 304.523438 265.089844 304.964844 264.644531 C 305.40625 264.203125 305.804688 263.722656 306.152344 263.199219 C 306.5 262.679688 306.792969 262.128906 307.03125 261.550781 C 307.273438 260.972656 307.453125 260.375 307.574219 259.761719 C 307.695312 259.148438 307.757812 258.527344 307.757812 257.902344 L 307.757812 181.613281 C 307.757812 180.984375 307.695312 180.367188 307.574219 179.75 C 307.453125 179.136719 307.273438 178.539062 307.03125 177.960938 C 306.792969 177.382812 306.5 176.835938 306.152344 176.3125 C 305.804688 175.792969 305.40625 175.3125 304.964844 174.867188 C 304.523438 174.425781 304.039062 174.03125 303.519531 173.683594 C 303 173.335938 302.449219 173.039062 301.871094 172.800781 C 301.292969 172.5625 300.695312 172.378906 300.082031 172.257812 C 299.46875 172.136719 298.847656 172.074219 298.222656 172.074219 Z M 298.222656 172.074219 " fill-opacity="1" fill-rule="evenodd"/></g><g mask="url(#3160f1ea99)"><g transform="matrix(1, 0, 0, 1, 4, 259)"><g clip-path="url(#4d7857c4e8)"><g fill="#021526" fill-opacity="1"><g transform="translate(1.006061, 75.512938)"><g><path d="M 36.515625 -9.078125 L 17.34375 -9.078125 L 14.265625 0 L 1.171875 0 L 19.765625 -51.375 L 34.25 -51.375 L 52.84375 0 L 39.59375 0 Z M 33.296875 -18.734375 L 26.9375 -37.546875 L 20.640625 -18.734375 Z M 33.296875 -18.734375 "/></g></g></g><g fill="#021526" fill-opacity="1"><g transform="translate(60.564519, 75.512938)"><g><path d="M 17.046875 -9.65625 L 33.453125 -9.65625 L 33.453125 0 L 4.53125 0 L 4.53125 -51.375 L 17.046875 -51.375 Z M 17.046875 -9.65625 "/></g></g></g><g fill="#021526" fill-opacity="1"><g transform="translate(101.099941, 75.512938)"><g><path d="M 16.828125 -51.375 L 16.828125 -20.640625 C 16.828125 -17.566406 17.582031 -15.195312 19.09375 -13.53125 C 20.613281 -11.875 22.835938 -11.046875 25.765625 -11.046875 C 28.691406 -11.046875 30.9375 -11.875 32.5 -13.53125 C 34.0625 -15.195312 34.84375 -17.566406 34.84375 -20.640625 L 34.84375 -51.375 L 47.359375 -51.375 L 47.359375 -20.71875 C 47.359375 -16.125 46.378906 -12.238281 44.421875 -9.0625 C 42.472656 -5.894531 39.847656 -3.503906 36.546875 -1.890625 C 33.253906 -0.285156 29.585938 0.515625 25.546875 0.515625 C 21.492188 0.515625 17.867188 -0.273438 14.671875 -1.859375 C 11.472656 -3.453125 8.945312 -5.84375 7.09375 -9.03125 C 5.238281 -12.226562 4.3125 -16.125 4.3125 -20.71875 L 4.3125 -51.375 Z M 16.828125 -51.375 "/></g></g></g><g fill="#021526" fill-opacity="1"><g transform="translate(158.317095, 75.512938)"><g><path d="M 30.734375 0 L 20.046875 -19.390625 L 17.046875 -19.390625 L 17.046875 0 L 4.53125 0 L 4.53125 -51.375 L 25.546875 -51.375 C 29.585938 -51.375 33.035156 -50.664062 35.890625 -49.25 C 38.753906 -47.832031 40.890625 -45.890625 42.296875 -43.421875 C 43.710938 -40.960938 44.421875 -38.222656 44.421875 -35.203125 C 44.421875 -31.785156 43.457031 -28.734375 41.53125 -26.046875 C 39.601562 -23.367188 36.757812 -21.46875 33 -20.34375 L 44.859375 0 Z M 17.046875 -28.25 L 24.8125 -28.25 C 27.101562 -28.25 28.820312 -28.804688 29.96875 -29.921875 C 31.113281 -31.046875 31.6875 -32.632812 31.6875 -34.6875 C 31.6875 -36.644531 31.113281 -38.179688 29.96875 -39.296875 C 28.820312 -40.421875 27.101562 -40.984375 24.8125 -40.984375 L 17.046875 -40.984375 Z M 17.046875 -28.25 "/></g></g></g><g fill="#021526" fill-opacity="1"><g transform="translate(211.656488, 75.512938)"><g><path d="M 36.515625 -9.078125 L 17.34375 -9.078125 L 14.265625 0 L 1.171875 0 L 19.765625 -51.375 L 34.25 -51.375 L 52.84375 0 L 39.59375 0 Z M 33.296875 -18.734375 L 26.9375 -37.546875 L 20.640625 -18.734375 Z M 33.296875 -18.734375 "/></g></g></g><g fill="#021526" fill-opacity="1"><g transform="translate(271.214951, 75.512938)"><g><path d="M 37.984375 -51.375 L 37.984375 -41.34375 L 17.046875 -41.34375 L 17.046875 -30.515625 L 32.71875 -30.515625 L 32.71875 -20.78125 L 17.046875 -20.78125 L 17.046875 0 L 4.53125 0 L 4.53125 -51.375 Z M 37.984375 -51.375 "/></g></g></g><g fill="#021526" fill-opacity="1"><g transform="translate(316.871956, 75.512938)"><g><path d="M 48.59375 -51.375 L 30.8125 -16.984375 L 30.8125 0 L 18.296875 0 L 18.296875 -16.984375 L 0.515625 -51.375 L 14.703125 -51.375 L 24.671875 -29.859375 L 34.546875 -51.375 Z M 48.59375 -51.375 "/></g></g></g></g></g></g></svg>